<svg width="512" height="512" viewBox="0 0 512 512" fill="none" xmlns="http://www.w3.org/2000/svg">
  <path
    d="M230 87C183 110 147 158 141 214C136 262 153 305 191 342C214 325 228 299 232 262C236 227 231 189 230 87Z"
    fill="#49A3DC"
  />
  <path
    d="M371 95C321 108 274 137 241 175C216 204 202 237 202 280C230 270 255 260 279 248C318 228 348 196 365 160C374 141 377 122 371 95Z"
    fill="#CFE765"
  />
  <path
    d="M98 311C133 268 183 245 236 245C218 303 181 348 124 364C106 369 90 369 68 361C72 343 83 329 98 311Z"
    fill="#9D9D97"
  />
  <path
    d="M275 277C327 271 382 286 423 323C442 340 458 360 472 381C449 402 425 410 395 407C336 402 291 357 275 277Z"
    fill="#D86D4E"
  />
  <path
    d="M238 286C268 329 281 378 274 427C271 451 263 472 246 497C223 484 208 468 198 444C177 392 190 338 238 286Z"
    fill="#F0C739"
  />
</svg>
